<svg width="20" height="20" viewBox="0 0 20 20" fill="none" xmlns="http://www.w3.org/2000/svg">
<g id="fill">
<path id="Mask" fill-rule="evenodd" clip-rule="evenodd" d="M11.1784 10.0002L14.7559 6.42271C15.0818 6.09688 15.0818 5.57021 14.7559 5.24438C14.4301 4.91854 13.9034 4.91854 13.5776 5.24438L10.0001 8.82188L6.42259 5.24438C6.09675 4.91854 5.57009 4.91854 5.24425 5.24438C4.91842 5.57021 4.91842 6.09688 5.24425 6.42271L8.82175 10.0002L5.24425 13.5777C4.91842 13.9035 4.91842 14.4302 5.24425 14.756C5.40675 14.9185 5.62009 15.0002 5.83342 15.0002C6.04675 15.0002 6.26009 14.9185 6.42259 14.756L10.0001 11.1785L13.5776 14.756C13.7401 14.9185 13.9534 15.0002 14.1668 15.0002C14.3801 15.0002 14.5934 14.9185 14.7559 14.756C15.0818 14.4302 15.0818 13.9035 14.7559 13.5777L11.1784 10.0002Z" fill="white" fill-opacity="0.6"/>
</g>
</svg>
