<svg width="16" height="16" viewBox="0 0 16 16" fill="none" xmlns="http://www.w3.org/2000/svg">
<path id="Combined-Shape" d="M8 16C3.58172 16 0 12.4183 0 8C0 3.58172 3.58172 0 8 0C12.4183 0 16 3.58172 16 8C16 12.4183 12.4183 16 8 16ZM7.08244 6.6604V14.7335C7.39535 14.7773 7.71505 14.8 8.04004 14.8C11.8177 14.8 14.88 11.7376 14.88 7.96C14.88 7.09194 14.7183 6.26165 14.4233 5.4976H8.2452C7.603 5.4976 7.08244 6.0182 7.08244 6.6604ZM8.04004 13.9108C8.01722 13.9108 7.99438 13.9107 7.9716 13.9104V6.6604C7.9716 6.5093 8.09409 6.3868 8.2452 6.3868H13.7808C13.9195 6.89414 13.9908 7.42178 13.9908 7.96C13.9908 11.2465 11.3266 13.9108 8.04004 13.9108ZM6.0564 14.5079V6.6604C6.0564 5.45156 7.03636 4.4716 8.2452 4.4716H13.9248C12.7327 2.4649 10.5435 1.12 8.04004 1.12C4.26241 1.12 1.20003 4.18237 1.20003 7.96C1.20003 11.0478 3.24608 13.6577 6.0564 14.5079ZM5.16724 6.6604V13.1737C3.30798 12.1484 2.08919 10.1728 2.08919 7.96C2.08919 4.67346 4.75351 2.0092 8.04004 2.0092C9.56797 2.0092 10.9947 2.5894 12.0721 3.5824H8.2452C6.54527 3.5824 5.16724 4.96047 5.16724 6.6604Z" fill="white" fill-opacity="0.6"/>
</svg>
