<svg width="132" height="48" viewBox="0 0 132 48" fill="none" xmlns="http://www.w3.org/2000/svg">
<g id="Group">
<path id="Vector" d="M31.9606 20.7594C33.5709 30.3348 9.14194 33.8314 18.3405 40.8402C21.2301 43.0419 24.1805 41.3553 23.7337 37.9399C23.3607 35.0906 33.7404 33.3652 32.9274 37.6713C31.8629 43.3183 26.1731 47.7759 21.2402 47.7759C11.2128 47.7759 1.60286 36.1062 3.48117 27.6947C6.25605 15.2583 30.6241 12.8113 31.9606 20.7594ZM50.6101 16.7288C51.7087 16.7288 52.7593 16.8508 53.762 17.0948C54.7721 17.3388 55.7232 17.7005 56.6154 18.1798L55.4697 21.5695C54.9681 21.2947 54.3939 21.0239 53.8616 20.8335C52.9547 20.5285 52.0441 20.376 51.1299 20.376C49.4341 20.376 48.1254 20.9381 47.2038 22.0623C46.2895 23.1778 45.8324 24.777 45.8324 26.8599C45.8324 28.9253 46.2748 30.5202 47.1596 31.6444C48.0443 32.7686 49.3739 33.3307 50.9308 33.3307C52.5125 33.3307 53.4921 32.9318 54.0146 32.5113V29.1345H50.588V25.7618H57.2236V35.1478C55.1179 36.9176 52.0303 36.9762 50.5695 36.9779L50.3779 36.978C47.6277 36.978 45.449 36.0716 43.8417 34.2589C42.2344 32.4375 41.4308 29.9711 41.4308 26.8599C41.4308 23.7138 42.2492 21.2388 43.886 19.4348C45.5228 17.6308 47.7641 16.7288 50.6101 16.7288ZM85.7806 16.7304C88.4349 16.7305 90.5153 17.6273 92.0193 19.4225C93.5234 21.2178 94.2748 23.6984 94.2748 26.8619C94.2748 30.0168 93.5234 32.4906 92.0193 34.2858C90.5153 36.0811 88.4349 36.9779 85.7806 36.9779C83.1337 36.9779 81.0586 36.0811 79.5471 34.2858C78.0431 32.4906 77.2865 30.0168 77.2865 26.8619C77.2865 23.6984 78.043 21.2178 79.5471 19.4225C80.9995 17.6974 82.9745 16.7978 85.4754 16.7304C85.5771 16.7277 85.6772 16.7304 85.7806 16.7304ZM102.489 17.0817L106.249 29.2661L110.031 17.0817H114.612L116.681 36.5989H112.655L111.414 24.3946L107.609 36.6574H104.911L101.106 23.9804L99.8648 36.5989H95.8281L97.8973 17.0817H102.489ZM62.8204 17.0817L71.3087 28.8112V17.0817H74.9316V36.5989H72.2452L63.7569 24.8694V36.5989H60.134V17.0817H62.8204ZM131.077 17.0817V20.8858H123.845V24.9341H129.405V28.324H123.845V32.7948H131.321V36.5989H119.587V17.0817H131.077ZM85.7209 20.3747L85.6617 20.3751C84.4222 20.4094 83.4576 20.9756 82.7648 22.0732C82.0496 23.2061 81.6888 24.8052 81.6888 26.8619C81.6888 28.91 82.0496 30.4971 82.7648 31.63C83.48 32.763 84.483 33.3333 85.7806 33.3333C87.0856 33.3333 88.0969 32.763 88.8121 31.63C89.5272 30.4971 89.888 28.91 89.888 26.8619C89.888 24.8052 89.5272 23.2061 88.8121 22.0732C88.0968 20.9402 87.0856 20.3751 85.7806 20.3751L85.7209 20.3747ZM4.62116 19.5745C2.50548 20.5061 -2.29989 14.4992 1.29607 12.0127C4.89364 9.52649 6.73683 18.6425 4.62116 19.5745ZM10.5823 14.803C8.06574 15.3177 4.25543 7.66006 8.74755 5.80494C13.2389 3.95022 13.1008 14.2891 10.5823 14.803ZM34.7448 0C44.6765 0 34.1235 14.1562 28.5374 14.1562C22.9505 14.1562 24.8135 0 34.7448 0ZM18.2542 12.4021C15.2782 12.2203 13.3127 2.49302 18.9017 1.76705C24.4926 1.04108 21.2289 12.5839 18.2542 12.4021Z" fill="white" fill-opacity="0.6"/>
</g>
</svg>
