<svg width="166" height="48" viewBox="0 0 166 48" fill="none" xmlns="http://www.w3.org/2000/svg">
<g id="Group">
<path id="Vector" d="M13.8891 10.1987C17.0637 10.1987 20.0896 11.2529 22.2721 13.0671V10.7626H28.6214V32.8026C28.6214 42.56 23.5866 47.5123 13.6659 47.5123C8.82948 47.5123 4.81157 45.6735 1.38891 41.9226L0.64485 41.089L5.75404 37.1174L6.4237 37.9265C8.95349 41.0645 11.8057 41.7265 13.7651 41.7265C19.1967 41.7265 21.9745 39.471 22.2473 34.8374C20.0151 36.7252 17.4357 37.5097 13.7403 37.5097C5.25801 37.5097 0 30.3755 0 23.7807C0 16.2787 6.22528 10.1987 13.8891 10.1987ZM75.1994 10.7626L82.392 27.8748L89.6589 10.7626H96.5291L80.4822 47.4877H73.7361L78.7709 35.7936L68.0565 10.7626H75.1994ZM57.1684 10.1987C64.733 10.1987 69.619 13.8516 69.6686 19.5149V37.191H63.5673V35.8181C61.6576 37.1419 59.475 37.7548 56.7716 37.7548C49.827 37.7548 44.9659 33.7342 44.9659 27.9729C44.9659 23.4374 48.6614 18.5587 56.722 18.5587C59.1278 18.5587 61.3599 19.1716 63.2697 20.2994V19.8581C63.2697 16.671 59.8222 16.009 56.9452 16.009C54.837 16.009 52.8281 16.4994 50.5959 17.5781L49.6534 18.0194L46.8012 12.6013L47.8677 12.16C51.0423 10.8362 54.093 10.1987 57.1684 10.1987ZM46.4788 10.1987V17.0142L45.1891 16.6955C44.569 16.5729 43.9986 16.4994 43.4778 16.4994C40.3775 16.4994 38.6166 18.6323 38.6166 22.3342V37.2155H32.2425V10.7626H38.6166V12.1845C40.5015 10.3703 42.5849 10.1987 45.4123 10.1987H46.4788ZM57.4908 24.3445C53.7458 24.3445 51.588 25.7419 51.588 28.169C51.588 30.5961 53.7458 31.9936 57.4908 31.9936C61.2359 31.9936 63.3937 30.5961 63.3937 28.169C63.3937 25.7419 61.2359 24.3445 57.4908 24.3445ZM14.6083 16.2297C9.62314 16.2297 6.64691 20.0787 6.64691 23.7807C6.64691 28.929 10.6896 31.6994 14.4843 31.6994C18.7751 31.6994 22.2721 28.2426 22.2476 24.0258C22.2476 19.7845 18.7502 16.2297 14.6083 16.2297Z" fill="white" fill-opacity="0.6"/>
<path id="Vector_2" d="M151.44 11.0568C155.235 11.0568 159.104 12.6258 161.212 15.6413H161.312V11.6697H165.751V33.5871C165.751 42.9522 161.212 47.8309 151.242 47.8309C146.703 47.8309 142.71 46.1638 139.238 42.3638L142.785 39.5935C145.513 42.9522 148.663 43.9819 151.316 43.9819C158.236 43.9819 161.287 40.5742 161.287 34.9109V33.0968H161.212C158.782 35.9651 156.277 37.3871 151.292 37.3871C142.661 37.3871 138.047 30.0568 138.047 24.1484C138.047 16.769 144.174 11.0568 151.44 11.0568ZM121.108 11.0813C129.193 11.0813 135.022 17.2348 135.022 24.3935C135.022 31.6748 129.491 37.6813 121.108 37.6813C112.725 37.6813 107.194 31.6748 107.194 24.3935C107.169 17.2348 112.998 11.0813 121.108 11.0813ZM102.159 0V29.1497C102.159 32.018 103.598 32.9987 105.011 32.9987H106.351V37.0929H104.515C100.423 37.0929 97.6947 34.7884 97.6947 29.4684V0H102.159ZM121.083 15.1755C116.172 15.1755 111.906 19.1226 111.906 24.3935C111.906 29.2722 116.147 33.5626 121.083 33.5626C126.019 33.5626 130.26 29.2722 130.26 24.3935C130.26 19.1226 126.019 15.1755 121.083 15.1755ZM152.234 15.1755C146.207 15.1755 142.809 19.9071 142.809 24.1484C142.809 30.0077 147.447 33.5135 152.085 33.5135C157.17 33.5135 161.312 29.4684 161.312 24.3935C161.312 19.2697 157.071 15.1755 152.234 15.1755Z" fill="white" fill-opacity="0.6"/>
<path id="Vector_3" d="M115.23 23.6581C115.602 23.6581 115.924 23.8542 116.098 24.1729H116.916L118.206 21.1084C118.256 20.9613 118.404 20.8387 118.553 20.7897C118.826 20.7406 119.099 20.8877 119.148 21.1574L120.513 27.0903L121.901 19.0981C121.926 18.9019 122.075 18.7548 122.273 18.7058C122.546 18.6323 122.819 18.8039 122.893 19.0735L124.382 25.08L125.15 22.849C125.175 22.751 125.25 22.6529 125.349 22.5793C125.572 22.4323 125.895 22.4813 126.043 22.7019L126.688 23.609C126.713 23.8297 126.713 24.0503 126.713 24.271C126.713 24.5652 126.688 24.8593 126.663 25.129C126.564 25.1045 126.49 25.031 126.415 24.9574L125.771 24.0748L124.778 27.0413C124.679 27.311 124.406 27.4335 124.134 27.36C123.96 27.311 123.836 27.1639 123.811 27.0168L122.472 21.6723L121.058 29.7871C121.009 30.0568 120.761 30.2284 120.488 30.2039C120.264 30.1793 120.116 30.0077 120.066 29.7871L118.553 22.9226L117.735 24.8593C117.66 25.0555 117.462 25.1781 117.263 25.1781H116.098C115.924 25.4723 115.602 25.6684 115.23 25.6684C114.684 25.6684 114.213 25.2271 114.213 24.6632C114.238 24.1239 114.684 23.6581 115.23 23.6581Z" fill="white" fill-opacity="0.6"/>
</g>
</svg>
