<svg width="235" height="40" viewBox="0 0 235 40" fill="none" xmlns="http://www.w3.org/2000/svg">
<g id="Group">
<path id="Vector" fill-rule="evenodd" clip-rule="evenodd" d="M2.71209 13.0805C-0.904031 16.6676 -0.904031 22.4826 2.71209 26.0693L13.1869 36.4602C16.803 40.0468 22.6653 40.0468 26.281 36.4602L36.7562 26.0693C40.372 22.4823 40.372 16.6672 36.7562 13.0805L26.281 2.69001C22.6649 -0.896671 16.8027 -0.896671 13.1869 2.69001L2.71209 13.0805ZM24.3167 24.1211C26.848 21.6102 26.848 17.5396 24.3167 15.029C21.7858 12.5181 17.6822 12.5181 15.1512 15.029C12.6199 17.54 12.6199 21.6102 15.1512 24.1211C17.6825 26.6317 21.7858 26.6317 24.3171 24.1211H24.3167Z" fill="white" fill-opacity="0.6"/>
<path id="Vector_2" fill-rule="evenodd" clip-rule="evenodd" d="M55.0732 26.5174C55.0879 23.6244 56.8704 21.9294 59.4334 21.9294C61.9818 21.9294 63.4842 23.5513 63.4695 26.313V39.4926H69.7445V25.2023C69.7592 19.9423 66.6363 16.7569 61.9227 16.7569C58.4908 16.7569 56.1929 18.3643 55.1616 21.0089H54.8965V9.56833H48.7982V39.4926H55.0732V26.5174ZM79.4753 39.9162C82.8188 39.9162 84.9841 38.4696 86.089 36.3803H86.2658V39.4926H92.2167V24.355C92.2167 19.0073 87.6504 16.7569 82.6128 16.7569C77.192 16.7569 73.6274 19.3288 72.7582 23.42L78.562 23.8873C78.9891 22.397 80.3295 21.3013 82.5831 21.3013C84.719 21.3013 85.9417 22.3679 85.9417 24.2088V24.2968C85.9417 25.7431 84.3949 25.9329 80.4622 26.313C75.984 26.7221 71.9629 28.2124 71.9629 33.2241C71.9629 37.6659 75.1591 39.9162 79.4753 39.9162ZM81.2721 35.6203C79.3426 35.6203 77.9579 34.7293 77.9579 33.0197C77.9579 31.2661 79.4163 30.4039 81.6259 30.0973C82.9955 29.9074 85.2345 29.586 85.9857 29.0889V31.4708C85.9857 33.823 84.0268 35.6203 81.2721 35.6203ZM114.25 23.4491C113.691 19.3139 110.332 16.7569 104.617 16.7569C98.8284 16.7569 95.0134 19.4164 95.028 23.7415C95.0134 27.1018 97.1493 29.279 101.568 30.1558L105.486 30.9301C107.46 31.3246 108.359 32.0407 108.388 33.1655C108.359 34.4954 106.9 35.445 104.706 35.445C102.467 35.445 100.979 34.4954 100.596 32.6688L94.4242 32.9902C95.0134 37.2862 98.6957 39.9308 104.691 39.9308C110.553 39.9308 114.751 36.9647 114.766 32.5375C114.751 29.2936 112.616 27.3502 108.226 26.4592L104.131 25.6409C102.025 25.1878 101.244 24.4717 101.259 23.3906C101.244 22.0464 102.776 21.1696 104.72 21.1696C106.9 21.1696 108.197 22.3534 108.506 23.7997L114.25 23.4491ZM123.333 26.5174C123.348 23.6244 125.13 21.9294 127.693 21.9294C130.242 21.9294 131.744 23.5513 131.729 26.313V39.4926H138.004V25.2023C138.019 19.9423 134.896 16.7569 130.183 16.7569C126.751 16.7569 124.453 18.3643 123.422 21.0089H123.156V9.56833H117.058V39.4926H123.333V26.5174ZM147.558 26.5174C147.573 23.6244 149.311 21.9294 151.845 21.9294C154.364 21.9294 155.881 23.5658 155.866 26.313V39.4926H162.141V25.2023C162.141 19.9717 159.048 16.7569 154.334 16.7569C150.976 16.7569 148.545 18.3934 147.529 21.0089H147.264V17.0493H141.283V39.4926H147.558V26.5174ZM175.65 39.9308C182.514 39.9308 186.786 35.2697 186.786 28.3586C186.786 21.4035 182.514 16.7569 175.65 16.7569C168.786 16.7569 164.514 21.4035 164.514 28.3586C164.514 35.2697 168.786 39.9308 175.65 39.9308ZM175.68 35.109C172.513 35.109 170.892 32.2305 170.892 28.3146C170.892 24.3986 172.513 21.506 175.68 21.506C178.787 21.506 180.408 24.399 180.408 28.3146C180.408 32.2305 178.787 35.109 175.68 35.109ZM197.544 39.8577C201.197 39.8577 203.097 37.7684 203.967 35.8981H204.232V39.4926H210.418V9.56799H204.158V20.8191H203.967C203.127 18.9927 201.315 16.7569 197.53 16.7569C192.566 16.7569 188.367 20.5852 188.367 28.3C188.367 35.8105 192.389 39.8577 197.544 39.8577ZM199.533 34.9046C196.454 34.9046 194.775 32.1866 194.775 28.2709C194.775 24.3841 196.425 21.7104 199.533 21.7104C202.582 21.7104 204.291 24.2673 204.291 28.2709C204.291 32.2742 202.552 34.9046 199.533 34.9046ZM224.229 39.9308C229.827 39.9308 233.597 37.2277 234.481 33.0633L228.678 32.6837C228.044 34.3929 226.424 35.2843 224.332 35.2843C221.195 35.2843 219.206 33.2241 219.206 29.878V29.8634H234.614V28.1539C234.614 20.5267 229.959 16.7569 223.979 16.7569C217.321 16.7569 213.005 21.4471 213.005 28.3731C213.005 35.489 217.262 39.9308 224.229 39.9308ZM219.206 26.006C219.339 23.4491 221.298 21.4035 224.082 21.4035C226.807 21.4035 228.692 23.3324 228.707 26.006H219.206Z" fill="white" fill-opacity="0.6"/>
</g>
</svg>
