<svg width="244" height="36" viewBox="0 0 244 36" fill="none" xmlns="http://www.w3.org/2000/svg">
<g id="Group">
<path id="Vector" d="M135.213 9.37756C136.98 9.37756 138.865 9.62052 140.866 10.1064C142.9 10.5924 144.967 11.3042 147.066 12.242L143.412 18.1056L142.861 17.8604C141.237 17.1464 139.87 16.6293 138.76 16.3089C137.526 15.9221 136.342 15.7286 135.207 15.7286C134.473 15.7286 133.873 15.8416 133.407 16.0675C132.973 16.2625 132.757 16.586 132.757 17.0378C132.757 17.2978 132.824 17.5253 132.957 17.7203C133.091 17.8812 133.326 18.0428 133.66 18.205C133.995 18.3668 134.446 18.5448 135.014 18.7389L135.39 18.8379C135.912 18.9726 136.52 19.1175 137.214 19.2728C139.097 19.7292 140.699 20.2145 142.02 20.7285L142.264 20.8253C143.632 21.3452 144.716 21.9286 145.516 22.5755C146.349 23.1914 146.933 23.9033 147.267 24.7111C147.633 25.488 147.817 26.3933 147.817 27.427C147.817 30.0485 146.783 32.1191 144.716 33.6388C142.682 35.1616 139.897 35.9229 136.363 35.9229L136.347 35.9034C135.247 35.9034 134.063 35.8225 132.796 35.6606C131.529 35.4991 130.279 35.2889 129.045 35.0302C127.847 34.7714 126.68 34.4641 125.545 34.1082C124.413 33.72 123.431 33.2996 122.599 32.8468L126.252 26.5886C128.086 27.5264 129.836 28.2378 131.504 28.7228C133.171 29.2081 134.722 29.4507 136.157 29.4507C137.824 29.4507 138.658 29.0463 138.658 28.2376C138.658 27.8167 138.325 27.4447 137.659 27.1215C136.992 26.7996 135.727 26.4128 133.861 25.9609L133.176 25.7798C131.609 25.3569 130.27 24.9329 129.16 24.5078C127.894 24.0249 126.879 23.491 126.114 22.9061C125.345 22.2932 124.795 21.6309 124.464 20.919C124.129 20.1762 123.962 19.3189 123.962 18.347C123.962 17.0533 124.228 15.8571 124.762 14.7583C125.329 13.6596 126.112 12.7063 127.112 11.8985C128.112 11.0907 129.296 10.4763 130.662 10.0554C132.062 9.6035 133.579 9.37756 135.213 9.37756ZM106.08 9.4147C110.281 9.4147 113.515 10.3216 115.783 12.1353C118.049 13.949 119.183 16.6664 119.183 20.2876V25.2366C119.183 26.1094 119.35 26.7238 119.685 27.0797C120.02 27.4047 120.621 27.5997 121.488 27.6647V35.4271C120.621 35.5881 119.804 35.701 119.037 35.766C118.269 35.8651 117.585 35.9146 116.985 35.9146C115.285 35.9146 113.985 35.6237 113.084 35.0418C112.217 34.429 111.65 33.5391 111.382 32.3723L111.181 31.4531C110.014 32.9108 108.664 34.0266 107.13 34.8004C105.597 35.5463 103.962 35.9192 102.228 35.9192L102.214 35.9034C100.914 35.9034 99.697 35.693 98.5632 35.2721C97.4298 34.8521 96.4462 34.2861 95.6124 33.5743C94.8122 32.8305 94.1788 31.9573 93.7124 30.9545C93.2469 29.9517 93.0141 28.8681 93.0141 27.7037C93.0141 26.41 93.2979 25.2295 93.8654 24.1623C94.4329 23.0946 95.2172 22.1727 96.2184 21.3968C97.2195 20.6205 98.404 20.0221 99.7718 19.6015C101.171 19.1812 102.705 18.971 104.373 18.971C106.509 18.971 108.277 19.2944 109.676 19.9413V19.1651C109.676 17.9682 109.31 17.0787 108.576 16.4965C107.878 15.9146 106.729 15.6237 105.128 15.6237C103.723 15.6237 102.419 15.8367 101.216 16.2627L100.977 16.3507C99.7112 16.8057 98.3785 17.4851 96.9788 18.3888L94.2289 12.6645C97.6965 10.498 101.647 9.4147 106.08 9.4147ZM191.805 9.41285C194.037 9.41285 196.026 9.75323 197.771 10.434L198.008 10.5289C199.716 11.2052 201.155 12.1147 202.326 13.2575L202.508 13.4398C203.677 14.5746 204.561 15.8982 205.161 17.4107L205.258 17.6646C205.889 19.2493 206.205 20.9159 206.205 22.6646C206.205 23.1506 206.172 23.652 206.105 24.1688C206.07 24.6548 206.019 25.0912 205.952 25.4781H187.501C187.602 26.8368 188.119 27.8241 189.052 28.44C189.985 29.0219 191.002 29.3128 192.102 29.3128C193.138 29.3128 194.106 29.0869 195.005 28.635C195.939 28.1831 196.556 27.5533 196.856 26.7455L204.909 28.9786C203.843 31.0182 202.193 32.6849 199.96 33.9786C197.759 35.2724 195.042 35.9192 191.808 35.9192V35.9034C189.507 35.9034 187.457 35.5638 185.657 34.8844C183.856 34.1725 182.339 33.2183 181.106 32.0218C179.906 30.8252 178.989 29.4506 178.356 27.8978C177.722 26.3453 177.405 24.7119 177.405 22.9975C177.405 21.1541 177.705 19.4076 178.304 17.7579C178.935 16.1082 179.852 14.669 181.054 13.4403C182.288 12.2109 183.788 11.2406 185.554 10.5294C187.353 9.78503 189.436 9.41285 191.805 9.41285ZM218.678 0.000464259V24.648C218.678 26.5886 219.494 27.5589 221.126 27.5589C221.525 27.5589 221.959 27.4939 222.427 27.3639C222.893 27.2348 223.326 27.0568 223.728 26.83L224.928 34.2535C223.793 34.7713 222.509 35.1756 221.074 35.4666C219.674 35.7575 218.34 35.903 217.071 35.903C214.536 35.903 212.585 35.2724 211.217 34.0111C209.849 32.7514 209.165 30.9254 209.165 28.5329V0.00371407L209.18 0.000464259H218.678ZM236.846 0.000464259V24.648C236.846 26.5886 237.663 27.5589 239.295 27.5589C239.694 27.5589 240.127 27.4939 240.596 27.3639C241.061 27.2348 241.495 27.0568 241.897 26.83L243.097 34.2535C241.962 34.7713 240.677 35.1756 239.242 35.4666C237.843 35.7575 236.508 35.903 235.24 35.903C232.705 35.903 230.755 35.2724 229.391 34.0111C228.023 32.7514 227.339 30.9254 227.339 28.5329V0.00371407L227.344 0.000464259H236.846ZM67.7468 0.971229V13.6826H79.6504V0.971229H89.4019V35.4183H79.6504V21.9307H67.7468V35.4174H57.9953V0.971229H67.7468ZM160.519 0V19.3596L167.521 9.898H177.523L168.471 21.0569L178.423 35.4183H168.371L162.419 26.1029L160.519 28.141V35.4174H151.017V0H160.519ZM106.012 23.9683C104.845 23.9683 103.877 24.2422 103.109 24.79C102.341 25.3378 101.956 26.0327 101.956 26.8745C101.956 27.5864 102.24 28.1683 102.808 28.6202C103.407 29.072 104.156 29.298 105.055 29.298L105.065 29.3049C105.631 29.3049 106.215 29.2242 106.815 29.0626C107.415 28.8682 107.948 28.6256 108.415 28.3346C108.782 28.0759 109.082 27.8009 109.316 27.5097C109.549 27.1862 109.666 26.8628 109.666 26.5394V24.6475C109.098 24.4534 108.481 24.2917 107.815 24.1623C107.145 24.033 106.544 23.9683 106.012 23.9683ZM191.657 15.9626C190.455 15.9626 189.471 16.3185 188.706 17.0304C187.941 17.7423 187.474 18.7126 187.305 19.9413H196.009C195.84 18.7126 195.373 17.7423 194.608 17.0304C193.839 16.3185 192.856 15.9626 191.657 15.9626Z" fill="white" fill-opacity="0.6"/>
<path id="Vector_2" d="M0 35.4647L11.8338 18.2444L0 1.02368H8.87534L20.7091 18.2444L8.87534 35.4647H0Z" fill="white" fill-opacity="0.6"/>
<path id="Vector_3" d="M11.8338 35.4647L23.6676 18.2444L11.8338 1.02368H20.7091L44.3757 35.4647H35.5014L28.1057 24.7023L20.7086 35.4647H11.8338Z" fill="white" fill-opacity="0.6"/>
<path id="Vector_4" d="M40.4321 25.4196L36.4875 19.679H50.2936V25.42H40.4321V25.4196ZM34.5152 16.8099L30.5706 11.0693H50.2936V16.8099H34.5152Z" fill="white" fill-opacity="0.6"/>
</g>
</svg>
