<svg width="240" height="48" viewBox="0 0 240 48" fill="none" xmlns="http://www.w3.org/2000/svg">
<g id="Group">
<path id="Vector" d="M65.9988 9.03515L65.9131 9.06383V21.8851H53.799V9.06383L53.7133 9.03515C51.9133 8.66227 50.1419 8.66227 48.3705 9.03515L48.2848 9.06383V38.5499L48.3705 38.5786C49.2562 38.7507 50.1419 38.8654 51.0276 38.8654C51.9133 38.8654 52.799 38.7794 53.7133 38.5786L53.799 38.5499V26.5891H65.9131V38.5499L65.9988 38.5786C67.7702 38.9515 69.5701 38.9515 71.3415 38.5786L71.4273 38.5499V9.06383L71.3415 9.03515C69.5416 8.69096 67.7702 8.69096 65.9988 9.03515ZM84.7699 17.3245C78.4271 17.3245 74.6558 21.3401 74.6558 28.0806C74.6558 31.5799 75.4557 34.3622 77.0557 36.2839C78.7985 38.3778 81.3985 39.4391 84.8556 39.4391C90.7126 39.4391 93.7125 35.9397 94.084 32.4691V32.3831L93.9983 32.3544C92.5126 31.8668 91.1412 31.752 89.5126 31.9815H89.4555V32.0389C89.1126 34.104 87.3984 35.3374 84.9127 35.3374C81.4271 35.3374 79.7128 33.4156 79.6557 29.4574H94.3982V29.3714C94.8268 25.4705 94.0554 22.3154 92.1697 20.1641C90.4269 18.3284 87.8841 17.3245 84.7699 17.3245ZM84.7127 21.1394C86.1698 21.1394 87.3984 21.5983 88.2269 22.4874C89.0841 23.4053 89.5126 24.7821 89.4269 26.417H79.6557C79.7414 23.0611 81.5985 21.1394 84.7127 21.1394ZM97.9696 9.03515L97.8839 9.06383V38.5499L97.9696 38.5786C98.7982 38.7507 99.6267 38.8654 100.484 38.8654C101.312 38.8654 102.17 38.7794 102.998 38.5786L103.084 38.5499V9.06383L102.998 9.03515C101.341 8.66227 99.6553 8.69096 97.9696 9.03515ZM117.541 17.3245C115.341 17.3245 113.026 18.185 110.827 19.8199L110.512 18.2711L110.455 18.2424C109.198 17.8695 108.169 17.8695 106.941 18.2424L106.884 18.2711V47.6137L106.969 47.6424C107.798 47.8145 108.627 47.9292 109.484 47.9292C110.341 47.9292 111.169 47.8432 111.998 47.6424L112.084 47.6137V37.8041C113.826 38.9228 115.684 39.4391 117.769 39.4391C123.541 39.4391 126.998 35.3374 126.998 28.4248C126.969 21.3975 123.541 17.3245 117.541 17.3245ZM111.998 23.1472C113.541 22.0859 114.969 21.5983 116.512 21.5983C120.026 21.5983 121.941 24.0363 121.941 28.5109C121.941 32.8994 120.055 35.2227 116.455 35.2227C114.912 35.2227 113.455 34.7351 111.998 33.7025V23.1472ZM149.026 22.6882C148.14 22.344 147.34 22.0572 146.569 21.7991C142.569 20.3649 140.169 19.5044 140.112 17.3245C140.083 16.3206 140.397 15.4601 141.083 14.7431C142.083 13.7105 143.769 13.1655 145.826 13.1655C147.854 13.1655 149.426 13.7105 150.369 14.7144C151.169 15.5749 151.511 16.7509 151.426 18.2137V18.2997L151.511 18.3284C153.254 18.6726 154.997 18.6439 156.883 18.2137L156.969 18.185V18.099C157.083 15.6322 156.34 13.481 154.826 11.8748C152.94 9.86696 149.912 8.80569 146.083 8.777H145.969C138.855 8.777 134.569 11.9608 134.512 17.2958C134.483 22.6022 139.34 24.3805 142.255 25.4131L142.683 25.5852C143.654 25.9294 144.569 26.2449 145.369 26.5317C149.312 27.9085 151.683 28.7403 151.769 30.8342C151.797 31.9241 151.483 32.8133 150.826 33.5017C149.883 34.4769 148.226 34.9645 146.026 34.9358C143.597 34.9358 141.74 34.3048 140.683 33.1575C139.912 32.297 139.597 31.2071 139.712 29.8876V29.8016L139.626 29.7729C137.855 29.4287 136.055 29.4574 134.283 29.859L134.226 29.8876V29.9737C134.083 32.3544 134.797 34.4769 136.34 36.1118C138.397 38.3204 141.769 39.4678 146.112 39.4391C150.369 39.4391 157.368 38.2917 157.426 30.8342C157.34 25.872 153.111 24.2658 149.026 22.6882ZM170.197 21.5983C173.711 21.5983 174.54 23.8929 174.711 25.241V25.3271H174.797C176.425 25.5852 177.968 25.4705 179.454 25.0402L179.54 25.0115V24.9255C179.397 22.8603 178.511 20.9959 177.054 19.6478C175.397 18.1276 173.025 17.2958 170.225 17.2958C163.54 17.2958 159.854 21.2254 159.854 28.3675C159.854 35.4808 163.511 39.4104 170.14 39.4104C172.997 39.4104 175.397 38.5786 177.082 37.001C178.482 35.6816 179.34 33.9033 179.511 31.9815V31.8955L179.425 31.8668C178.025 31.3792 176.482 31.2931 174.797 31.5799H174.74V31.6373C174.282 34.8498 171.168 35.0793 170.225 35.0793C166.625 35.0793 164.94 32.928 164.94 28.3101C164.911 23.7495 166.597 21.5983 170.197 21.5983ZM192.196 17.3245C185.625 17.3245 181.997 21.2541 181.997 28.3961C181.997 35.5095 185.625 39.4391 192.196 39.4391C198.768 39.4391 202.396 35.5095 202.396 28.3961C202.396 21.2541 198.768 17.3245 192.196 17.3245ZM197.425 28.4248C197.425 32.9854 195.711 35.194 192.196 35.194C188.682 35.194 186.968 32.9854 186.968 28.4248C186.968 23.7782 188.625 21.5983 192.196 21.5983C195.711 21.5983 197.425 23.8355 197.425 28.4248ZM218.853 18.2711L218.767 18.2997V32.9854C217.11 34.4195 215.596 35.0506 213.853 35.0506C211.396 35.0506 210.339 33.6451 210.339 30.3179V18.2711L210.253 18.2424C208.596 17.8408 206.91 17.8408 205.225 18.2424L205.139 18.2711V31.4939C205.139 36.5134 207.825 39.4104 212.539 39.4104C215.053 39.4104 217.253 38.4352 219.624 36.2553L220.11 38.5499L220.167 38.5786C221.367 38.8941 222.624 38.8941 223.824 38.5786L223.91 38.5499V18.2711L223.824 18.2424C222.224 17.8408 220.539 17.8408 218.853 18.2711ZM239.738 34.6203L239.71 34.5343L239.624 34.563C237.624 35.0219 236.453 34.9932 235.767 34.4482C235.196 33.9893 234.938 33.1862 234.938 31.9241V22.5161H238.996L239.024 22.4301C239.31 21.0533 239.31 19.6478 239.024 18.2424L238.996 18.1563H234.938V12.5918L234.853 12.5632C233.196 12.1903 231.51 12.1903 229.853 12.5632L229.767 12.5918L229.796 18.1563H227.224L227.196 18.2424C226.882 19.6192 226.882 21.0533 227.196 22.4301L227.224 22.5161H229.796L229.824 31.5513C229.824 34.0754 229.967 36.6281 231.71 38.091C232.653 38.8654 234.024 39.267 235.796 39.267C236.881 39.267 238.138 39.1236 239.596 38.8367H239.653L239.681 38.7794C240.081 37.4313 240.11 36.0258 239.738 34.6203Z" fill="white" fill-opacity="0.6"/>
<path id="Vector_2" d="M2.82852 27.8798L16.714 13.9399C18.5139 12.1616 19.6282 9.66615 19.6282 6.94127C19.6282 4.24507 18.5425 1.77834 16.7997 0L2.91423 13.9399C1.11426 15.7183 0 18.2137 0 20.9385C0 23.6634 1.08569 26.1015 2.82852 27.8798ZM36.4565 19.7339L22.571 33.6738C20.771 35.4521 19.6568 37.9475 19.6568 40.6724C19.6568 43.3686 20.7425 45.8353 22.4853 47.6137L36.3708 33.6738C38.1707 31.8954 39.285 29.4 39.285 26.6751C39.285 23.9503 38.1993 21.5122 36.4565 19.7339ZM36.3708 13.9686C38.1707 12.1902 39.285 9.69483 39.285 6.96995C39.285 4.27376 38.1993 1.80703 36.4565 0.0286829L2.91423 33.6738C1.11426 35.4808 0 37.9475 0 40.7011C0 43.3973 1.08569 45.864 2.82852 47.6424L36.3708 13.9686Z" fill="white" fill-opacity="0.6"/>
</g>
</svg>
