<svg width="164" height="48" viewBox="0 0 164 48" fill="none" xmlns="http://www.w3.org/2000/svg">
<g id="Group">
<path id="Vector" d="M66.2028 20.6468C66.7757 20.6262 67.3472 20.7175 67.8852 20.9157C68.7461 21.2996 69.449 21.9677 69.8763 22.8081V20.9157H73.1914V33.2461C73.2717 34.5666 72.9747 35.8828 72.3352 37.0408C71.3923 38.4623 69.6236 39.2014 67.0291 39.2583L66.7005 39.2618C65.2807 39.3108 63.875 38.9661 62.6388 38.2658C61.6058 37.642 60.9523 36.5435 60.8966 35.3376H64.6C64.6558 35.6653 64.8165 35.9659 65.0579 36.1942C65.6045 36.5552 66.2572 36.7202 66.9096 36.6623C67.9007 36.7845 68.8688 36.3021 69.3685 35.4372C69.6988 34.6223 69.8515 33.7463 69.8165 32.8676V32.031C69.5521 32.5128 69.1932 32.9362 68.7613 33.2759C67.9981 33.8237 67.0709 34.0943 66.1331 34.0429C64.6056 34.0981 63.1374 33.4481 62.151 32.28C61.0984 30.9203 60.5717 29.2263 60.6676 27.5092C60.6077 25.7705 61.1181 24.06 62.1211 22.6388C63.0543 21.3233 64.5921 20.5728 66.2028 20.6468ZM149.559 20.7763C150.509 20.7494 151.455 20.9076 152.344 21.2408L152.675 21.3739C153.59 21.7916 154.367 22.4619 154.914 23.3061C155.446 24.1154 155.786 25.035 155.91 25.9953C156.009 26.8513 156.043 27.7137 156.01 28.5749H146.552C146.491 29.6652 147.005 30.708 147.906 31.3238C148.47 31.6641 149.12 31.8336 149.778 31.8118C150.455 31.8518 151.124 31.6428 151.659 31.2242C151.952 30.9756 152.192 30.6708 152.366 30.3278H155.83C155.689 31.1459 155.309 31.902 154.742 32.5029L154.566 32.6784C153.284 33.9811 151.502 34.6672 149.678 34.5608C148.009 34.5825 146.386 34.0107 145.099 32.9473C143.771 31.8782 143.107 30.1419 143.107 27.7383C142.987 25.8426 143.636 23.9785 144.909 22.5691C146.142 21.3497 147.827 20.6999 149.559 20.7763ZM91.7282 20.597C93.6222 20.4566 95.4702 21.2257 96.7058 22.6687C97.7391 23.9698 98.3145 25.5723 98.3484 27.228V27.5391C98.3832 29.3075 97.7947 31.0317 96.6859 32.4094C95.4344 33.8229 93.5888 34.5615 91.7082 34.4014C89.8293 34.5504 87.9885 33.8137 86.7306 32.4094C85.6903 31.1048 85.1139 29.4943 85.0866 27.8315L85.088 27.5191C85.0567 25.7482 85.6448 24.022 86.7505 22.6388C87.9921 21.2069 89.8392 20.4492 91.7282 20.597ZM161.654 17.619V21.2444H163.765V23.6647H161.654V30.537C161.611 30.8818 161.681 31.2313 161.853 31.533C162.241 31.7161 162.672 31.7852 163.098 31.7322H163.765V34.262L162.162 34.3118C160.549 34.3118 159.454 34.0827 158.867 33.4751C158.448 32.9716 158.241 32.3254 158.289 31.6724V23.7045L156.448 23.6647V21.2444H158.289V17.619H161.654ZM131.928 21.4835C132.424 21.9037 132.807 22.4412 133.043 23.0472C133.428 22.3413 134.004 21.7581 134.705 21.3639C135.433 21.0061 136.234 20.8253 137.045 20.8361C137.613 20.8305 138.177 20.9318 138.707 21.1349C139.306 21.3875 139.827 21.7927 140.22 22.3101C140.605 22.792 140.859 23.3648 140.957 23.9734C141.032 24.4825 141.072 24.9958 141.078 25.51L141.077 34.0927H137.592V25.816C137.607 25.398 137.525 24.9822 137.353 24.6009C137.038 23.9859 136.378 23.6264 135.691 23.6945C134.843 23.6003 134.033 24.074 133.7 24.8599C133.505 25.33 133.41 25.8353 133.421 26.3439V34.0827H129.996V26.3339C130.028 25.7658 129.947 25.1971 129.757 24.6607C129.458 24.0163 128.781 23.6354 128.075 23.7145C127.284 23.5981 126.499 23.9668 126.084 24.6507C125.868 25.153 125.773 25.6986 125.805 26.2443V34.0727H122.45V21.1249H125.755V23.0173C126.069 22.4744 126.473 21.9894 126.95 21.5831C128.453 20.5985 130.386 20.5599 131.928 21.4835ZM110.136 21.3639C110.632 21.7836 111.016 22.3212 111.25 22.9276C111.642 22.2286 112.217 21.65 112.913 21.2544C113.638 20.8903 114.441 20.7091 115.253 20.7265C115.768 20.7299 116.279 20.8198 116.764 20.9921L117.005 21.0851C118.179 21.5881 119.024 22.6463 119.255 23.9037C119.32 24.3989 119.357 24.8972 119.365 25.3964L119.364 34.0827H115.88V25.806C115.895 25.3847 115.814 24.9655 115.641 24.581C115.323 23.968 114.665 23.6093 113.978 23.6746C113.134 23.5997 112.335 24.0673 111.987 24.8399C111.821 25.2335 111.728 25.6529 111.71 26.0782L111.708 34.0727H108.284V26.3339C108.315 25.7626 108.234 25.1907 108.045 24.6507C107.747 24.0102 107.075 23.63 106.372 23.7045C105.581 23.5881 104.797 23.9568 104.381 24.6407C104.171 25.148 104.076 25.6957 104.103 26.2443V34.0628H100.658V21.1149H103.963V22.9077C104.273 22.3597 104.678 21.8708 105.158 21.4635C106.664 20.4884 108.592 20.4499 110.136 21.3639ZM83.4155 20.6568L83.6245 20.6667H83.9132V24.1527C83.7042 24.1527 83.515 24.1527 83.3458 24.1029H82.9376C81.838 23.9633 80.7587 24.4817 80.18 25.4276C79.879 26.1591 79.743 26.9481 79.7818 27.7383V33.9632H76.3074V20.9556H79.5528V23.2264C79.9167 22.5652 80.38 21.9639 80.9267 21.4436C81.6338 20.8887 82.518 20.6091 83.4155 20.6568ZM91.6933 23.4756C90.8068 23.4756 89.966 23.8696 89.3986 24.5511C88.8122 25.4329 88.5292 26.4818 88.5922 27.5391C88.5284 28.5949 88.8078 29.6431 89.3887 30.527C89.9561 31.2085 90.7968 31.6025 91.6833 31.6025C92.5699 31.6025 93.4106 31.2085 93.978 30.527C94.5537 29.6408 94.8327 28.5944 94.7745 27.5391C94.842 26.4842 94.566 25.4359 93.988 24.5511C93.4206 23.8696 92.5798 23.4756 91.6933 23.4756ZM64.5402 25.2483C64.2835 25.9532 64.1587 26.6993 64.1719 27.4494C64.1648 28.1319 64.2934 28.8091 64.5502 29.4414C64.9002 30.4178 65.8131 31.0704 66.8373 31.0967L67.0191 31.0947C67.7786 31.1186 68.5114 30.8137 69.0301 30.2581V30.2481C69.6435 29.424 69.9339 28.4035 69.8464 27.3797C69.9222 26.3799 69.6515 25.3846 69.0798 24.5611C68.6209 23.9681 67.9282 23.6078 67.1857 23.5682L66.9992 23.5651C65.8934 23.5054 64.8852 24.1955 64.5402 25.2483ZM147.587 24.3021C147.082 24.8531 146.765 25.5508 146.681 26.2941H152.535C152.526 25.515 152.199 24.7735 151.629 24.2423C151.129 23.8188 150.506 23.5728 149.856 23.5387L149.638 23.5352C148.877 23.4919 148.133 23.7701 147.587 24.3021Z" fill="white" fill-opacity="0.6"/>
<path id="Vector_2" d="M23.8927 7.9679C32.6898 7.9679 39.8212 15.1026 39.8212 23.9037C39.8212 32.7048 32.6898 39.8395 23.8927 39.8395C15.0957 39.8395 7.96424 32.7048 7.96424 23.9037C7.96424 15.1026 15.0957 7.9679 23.8927 7.9679ZM23.8927 0C10.6971 0 0 10.7021 0 23.9037C0 37.1054 10.6971 47.8074 23.8927 47.8074C37.0883 47.8074 47.7855 37.1054 47.7855 23.9037C47.7855 17.5641 45.2682 11.484 40.7874 7.00123C36.3067 2.51842 30.2295 0 23.8927 0Z" fill="white" fill-opacity="0.6"/>
</g>
</svg>
