<svg width="20" height="20" viewBox="0 0 20 20" fill="none" xmlns="http://www.w3.org/2000/svg">
<g id="social icons black - 7">
<path id="telegram" fill-rule="evenodd" clip-rule="evenodd" d="M10 20C4.47715 20 0 15.5228 0 10C0 4.47715 4.47715 0 10 0C15.5228 0 20 4.47715 20 10C20 15.5228 15.5228 20 10 20ZM10.4324 7.50461C9.53678 7.87713 7.7468 8.64816 5.06245 9.81768C4.62655 9.99103 4.39821 10.1606 4.37742 10.3264C4.34229 10.6066 4.69322 10.717 5.17109 10.8673C5.23609 10.8877 5.30344 10.9089 5.37249 10.9313C5.84264 11.0841 6.47507 11.2629 6.80385 11.27C7.10208 11.2765 7.43494 11.1535 7.80243 10.9012C10.3105 9.20817 11.6052 8.35243 11.6865 8.33399C11.7438 8.32097 11.8233 8.30461 11.8771 8.35246C11.931 8.40032 11.9257 8.49094 11.92 8.51526C11.8852 8.66346 10.5077 9.94412 9.79482 10.6069C9.57259 10.8135 9.41495 10.96 9.38272 10.9935C9.31054 11.0685 9.23697 11.1394 9.16626 11.2076C8.72948 11.6286 8.40193 11.9444 9.18439 12.46C9.56041 12.7078 9.8613 12.9127 10.1615 13.1171C10.4893 13.3404 10.8163 13.563 11.2393 13.8404C11.3471 13.911 11.4501 13.9844 11.5503 14.0559C11.9318 14.3279 12.2746 14.5722 12.698 14.5332C12.9441 14.5106 13.1982 14.2792 13.3273 13.5892C13.6324 11.9584 14.232 8.42506 14.3706 6.96904C14.3827 6.84147 14.3674 6.67821 14.3552 6.60655C14.3429 6.53488 14.3173 6.43277 14.2241 6.35718C14.1138 6.26766 13.9435 6.24878 13.8673 6.25006C13.521 6.25623 12.9896 6.44099 10.4324 7.50461Z" fill="white" fill-opacity="0.6"/>
</g>
</svg>
