<svg width="20" height="20" viewBox="0 0 20 20" fill="none" xmlns="http://www.w3.org/2000/svg">
<g clip-path="url(#clip0_157_474)">
<path fill-rule="evenodd" clip-rule="evenodd" d="M0 10C0 4.47734 4.47734 0 10 0C15.5227 0 20 4.47734 20 10C20 15.5227 15.5227 20 10 20C4.47734 20 0 15.5227 0 10ZM15.375 4.11914L11.0941 9.09531H11.0939L15.7498 15.8712H12.3256L9.19032 11.3083L5.26498 15.8712H4.25049L8.73993 10.6529L4.25049 4.11914H7.67468L10.6435 8.43989L14.3606 4.11914H15.375ZM7.1887 4.88284H5.6305L12.8029 15.1422H14.361L7.1887 4.88284Z" fill="#101112"/>
</g>
<defs>
<clipPath id="clip0_157_474">
<rect width="20" height="20" fill="white"/>
</clipPath>
</defs>
</svg>
