<svg width="20" height="20" viewBox="0 0 20 20" fill="none" xmlns="http://www.w3.org/2000/svg">
<g id="svg (9) 1" clip-path="url(#clip0_227_6460)">
<g id="Group">
<path id="Subtract" fill-rule="evenodd" clip-rule="evenodd" d="M0 10C0 4.47734 4.47734 0 10 0C15.5227 0 20 4.47734 20 10C20 15.5227 15.5227 20 10 20C4.47734 20 0 15.5227 0 10ZM15.3749 4.11886L11.094 9.09503H11.0937L15.7497 15.8709H12.3255L9.19019 11.308L5.26484 15.8709H4.25035L8.73979 10.6526L4.25035 4.11886H7.67454L10.6434 8.43961L14.3605 4.11886H15.3749ZM7.18856 4.88256H5.63037L12.8027 15.1419H14.3609L7.18856 4.88256Z" fill="#101112" fill-opacity="0.6"/>
</g>
</g>
<defs>
<clipPath id="clip0_227_6460">
<rect width="20" height="20" fill="white"/>
</clipPath>
</defs>
</svg>
